<svg xmlns="http://www.w3.org/2000/svg" viewBox="0 0 512 512" width="512" height="512">
  <defs>
    <linearGradient id="bgBlue" x1="0%" y1="0%" x2="100%" y2="100%">
      <stop offset="0%"   stop-color="#4A90E2"/>
      <stop offset="100%" stop-color="#3367D6"/>
    </linearGradient>

    <radialGradient id="badgeShine" cx="40%" cy="28%" r="60%">
      <stop offset="0%"   stop-color="#FFFFFF" stop-opacity="1"/>
      <stop offset="100%" stop-color="#F0F0F0" stop-opacity="1"/>
    </radialGradient>

    <linearGradient id="keyGrad" x1="0%" y1="0%" x2="0%" y2="100%">
      <stop offset="0%"   stop-color="#FFFFFF" stop-opacity="0.30"/>
      <stop offset="100%" stop-color="#FFFFFF" stop-opacity="0.12"/>
    </linearGradient>

    <filter id="kbShadow" x="-8%" y="-6%" width="116%" height="120%">
      <feDropShadow dx="0" dy="10" stdDeviation="18" flood-color="#1A3A8A" flood-opacity="0.45"/>
    </filter>

    <filter id="badgeShadow" x="-12%" y="-8%" width="124%" height="130%">
      <feDropShadow dx="0" dy="8" stdDeviation="12" flood-color="#1A3A8A" flood-opacity="0.30"/>
    </filter>
  </defs>

  <rect x="0" y="0" width="512" height="512" rx="108" ry="108" fill="url(#bgBlue)"/>
  <rect x="0" y="0" width="512" height="220" rx="108" ry="108" fill="white" opacity="0.07"/>

  <rect x="48" y="270" width="416" height="192" rx="40" ry="40" fill="url(#bgBlue)" filter="url(#kbShadow)" stroke="white" stroke-opacity="0.15" stroke-width="2"/>

  <g fill="url(#keyGrad)">
    <rect x="62"  y="298" width="42" height="36" rx="8"/>
    <rect x="114" y="298" width="42" height="36" rx="8"/>
    <rect x="166" y="298" width="42" height="36" rx="8"/>
    <rect x="218" y="298" width="42" height="36" rx="8"/>
    <rect x="270" y="298" width="42" height="36" rx="8"/>
    <rect x="322" y="298" width="42" height="36" rx="8"/>
    <rect x="374" y="298" width="42" height="36" rx="8"/>
    <rect x="426" y="298" width="36" height="36" rx="8"/>
    <rect x="80"  y="346" width="42" height="36" rx="8"/>
    <rect x="134" y="346" width="42" height="36" rx="8"/>
    <rect x="188" y="346" width="42" height="36" rx="8"/>
    <rect x="242" y="346" width="42" height="36" rx="8"/>
    <rect x="296" y="346" width="42" height="36" rx="8"/>
    <rect x="350" y="346" width="42" height="36" rx="8"/>
    <rect x="404" y="346" width="54" height="36" rx="8"/>
    <rect x="100" y="394" width="312" height="38" rx="19"/>
  </g>

  <path d="M 160,96 Q 160,68 188,68 L 324,68 Q 352,68 352,96 L 352,272 Q 352,295 330,305 L 270,334 Q 256,342 242,334 L 182,305 Q 160,295 160,272 Z" fill="url(#badgeShine)" filter="url(#badgeShadow)"/>

  <g transform="translate(20, 10)">
    <path d="M 215,130 L 215,180 L 255,180 Z" fill="#EA4335" />
    <path d="M 215,180 L 215,220 L 285,220 L 255,180 Z" fill="#FBBC05" />
    <path d="M 215,220 L 215,260 L 245,235 L 265,275 L 285,265 L 265,225 L 285,220 Z" fill="#34A853" />
    <path d="M 245,235 L 265,275 L 285,265 L 265,225 Z" fill="#4285F4" />
    
    <path d="M 215,130 L 215,264 L 248,232 L 268,276 L 290,267 L 270,223 L 318,223 Z" 
          fill="none" stroke="#FFFFFF" stroke-width="2" opacity="0.3"/>
  </g>
</svg>
